<svg width="15" height="14" viewBox="0 0 15 14" fill="none" xmlns="http://www.w3.org/2000/svg">
<g clip-path="url(#clip0_97_105)">
<path d="M13.0022 2.50091C14.2363 3.65272 15 5.24364 15 7C15 8.75638 14.2363 10.3472 13.0022 11.4991L12.0409 10.6018C13.0296 9.68543 13.6363 8.41276 13.6363 7C13.6363 5.59364 13.0296 4.31454 12.0409 3.39818L13.0022 2.50091ZM11.0728 4.30182C11.8159 4.99546 12.2727 5.95 12.2727 7C12.2727 8.05 11.8159 9.00457 11.0728 9.69819L10.1113 8.80094C10.6023 8.34276 10.9091 7.70636 10.9091 7C10.9091 6.29364 10.6023 5.65728 10.1113 5.19909L11.0728 4.30182ZM8.18182 5.72728C8.5435 5.72728 8.89033 5.86136 9.14608 6.10005C9.40175 6.33873 9.54542 6.66245 9.54542 7C9.54542 7.33755 9.40175 7.66127 9.14608 7.89997C8.89033 8.13867 8.5435 8.27276 8.18182 8.27276C7.82016 8.27276 7.47332 8.13867 7.21758 7.89997C6.96185 7.66127 6.81818 7.33755 6.81818 7C6.81818 6.66245 6.96185 6.33873 7.21758 6.10005C7.47332 5.86136 7.82016 5.72728 8.18182 5.72728ZM7.15909 0C7.61117 0 8.04472 0.167613 8.36442 0.465967C8.68408 0.76432 8.86367 1.16898 8.86367 1.59091V4.45454H7.5V1.90909H1.36363V11.4546H7.5V9.54543H8.86367V12.4091C8.86367 12.831 8.68408 13.2357 8.36442 13.534C8.04472 13.8324 7.61117 14 7.15909 14H1.70454C1.25247 14 0.818914 13.8324 0.49925 13.534C0.179586 13.2357 0 12.831 0 12.4091V1.59091C0 1.16898 0.179586 0.76432 0.49925 0.465967C0.818914 0.167613 1.25247 0 1.70454 0H7.15909Z" fill="black"/>
</g>
<defs>
<clipPath id="clip0_97_105">
<rect width="15" height="14" fill="white"/>
</clipPath>
</defs>
</svg>
