<svg width="18" height="18" viewBox="0 0 18 18" fill="none" xmlns="http://www.w3.org/2000/svg">
<path d="M15.6027 3.21545C17.0836 4.69636 18 6.74182 18 9C18 11.2582 17.0836 13.3036 15.6027 14.7845L14.4491 13.6309C15.6355 12.4527 16.3636 10.8164 16.3636 9C16.3636 7.19182 15.6355 5.54727 14.4491 4.36909L15.6027 3.21545ZM13.2873 5.53091C14.1791 6.42273 14.7273 7.65 14.7273 9C14.7273 10.35 14.1791 11.5773 13.2873 12.4691L12.1336 11.3155C12.7227 10.7264 13.0909 9.90818 13.0909 9C13.0909 8.09182 12.7227 7.27364 12.1336 6.68455L13.2873 5.53091ZM9.81818 7.36364C10.2522 7.36364 10.6684 7.53604 10.9753 7.84292C11.2821 8.14979 11.4545 8.56601 11.4545 9C11.4545 9.43399 11.2821 9.85021 10.9753 10.1571C10.6684 10.464 10.2522 10.6364 9.81818 10.6364C9.38419 10.6364 8.96798 10.464 8.6611 10.1571C8.35422 9.85021 8.18182 9.43399 8.18182 9C8.18182 8.56601 8.35422 8.14979 8.6611 7.84292C8.96798 7.53604 9.38419 7.36364 9.81818 7.36364ZM8.59091 0C9.1334 0 9.65367 0.215503 10.0373 0.5991C10.4209 0.982697 10.6364 1.50297 10.6364 2.04545V5.72727H9V2.45455H1.63636V14.7273H9V12.2727H10.6364V15.9545C10.6364 16.497 10.4209 17.0173 10.0373 17.4009C9.65367 17.7845 9.1334 18 8.59091 18H2.04545C1.50297 18 0.982697 17.7845 0.5991 17.4009C0.215503 17.0173 0 16.497 0 15.9545V2.04545C0 1.50297 0.215503 0.982697 0.5991 0.5991C0.982697 0.215503 1.50297 0 2.04545 0H8.59091Z" fill="#000000"/>
</svg>

