<svg width="16" height="16" viewBox="0 0 16 16" fill="none" xmlns="http://www.w3.org/2000/svg">
<path d="M12.6668 14H5.3335V4.66663H12.6668M12.6668 3.33329H5.3335C4.97987 3.33329 4.64074 3.47377 4.39069 3.72382C4.14064 3.97387 4.00016 4.313 4.00016 4.66663V14C4.00016 14.3536 4.14064 14.6927 4.39069 14.9428C4.64074 15.1928 4.97987 15.3333 5.3335 15.3333H12.6668C13.0205 15.3333 13.3596 15.1928 13.6096 14.9428C13.8597 14.6927 14.0002 14.3536 14.0002 14V4.66663C14.0002 4.313 13.8597 3.97387 13.6096 3.72382C13.3596 3.47377 13.0205 3.33329 12.6668 3.33329ZM10.6668 0.666626H2.66683C2.31321 0.666626 1.97407 0.807102 1.72402 1.05715C1.47397 1.3072 1.3335 1.64634 1.3335 1.99996V11.3333H2.66683V1.99996H10.6668V0.666626Z" fill="black"/>
</svg>
