<svg width="10" height="14" viewBox="0 0 10 14" fill="none" xmlns="http://www.w3.org/2000/svg">
<g clip-path="url(#clip0_97_111)">
<path d="M5 0C5.56832 0 6.11336 0.232894 6.51523 0.647448C6.91709 1.062 7.14286 1.62426 7.14286 2.21053V6.63158C7.14286 7.21785 6.91709 7.78009 6.51523 8.19464C6.11336 8.60919 5.56832 8.8421 5 8.8421C4.43168 8.8421 3.88664 8.60919 3.48477 8.19464C3.08291 7.78009 2.85714 7.21785 2.85714 6.63158V2.21053C2.85714 1.62426 3.08291 1.062 3.48477 0.647448C3.88664 0.232894 4.43168 0 5 0ZM10 6.63158C10 9.23263 8.13571 11.3768 5.71429 11.7379V14H4.28571V11.7379C1.86429 11.3768 0 9.23263 0 6.63158H1.42857C1.42857 7.60871 1.80484 8.54582 2.47462 9.23668C3.14439 9.92762 4.0528 10.3158 5 10.3158C5.9472 10.3158 6.85561 9.92762 7.52536 9.23668C8.19514 8.54582 8.57143 7.60871 8.57143 6.63158H10Z" fill="black"/>
</g>
<defs>
<clipPath id="clip0_97_111">
<rect width="10" height="14" fill="white"/>
</clipPath>
</defs>
</svg>
