<svg width="96" height="96" viewBox="0 0 96 96" fill="none" xmlns="http://www.w3.org/2000/svg">
<path d="M13.0909 0C8.24727 0 4.36364 3.88364 4.36364 8.72727V26.1818C4.36364 31.0255 8.24727 34.9091 13.0909 34.9091H0V43.6364H52.3636V34.9091H39.2727C44.1164 34.9091 48 31.0255 48 26.1818V8.72727C48 3.88364 44.1164 0 39.2727 0H13.0909ZM13.0909 8.72727H39.2727V26.1818H13.0909V8.72727ZM56.7273 52.3636C51.8836 52.3636 48 56.2473 48 61.0909V78.5455C48 83.3891 51.8836 87.2727 56.7273 87.2727H43.6364V96H96V87.2727H82.9091C87.7527 87.2727 91.6364 83.3891 91.6364 78.5455V61.0909C91.6364 56.2473 87.7527 52.3636 82.9091 52.3636H56.7273ZM12.5673 54.3709L6.37091 60.5673L15.6655 69.8182L6.37091 79.0691L12.5673 85.2655L21.8182 75.9709L31.0691 85.2655L37.2655 79.0691L27.9709 69.8182L37.2655 60.5673L31.0691 54.3709L21.8182 63.6655L12.5673 54.3709ZM56.7273 61.0909H82.9091V78.5455H56.7273V61.0909Z" fill="#000000"/>
</svg>

