<svg width="14" height="16" viewBox="0 0 14 16" fill="none" xmlns="http://www.w3.org/2000/svg">
<path d="M14 0V11.1111C14 11.9362 13.7283 12.7276 13.2446 13.311C12.761 13.8944 12.105 14.2222 11.4211 14.2222C10.7371 14.2222 10.0811 13.8944 9.59746 13.311C9.11382 12.7276 8.84211 11.9362 8.84211 11.1111C8.84211 10.286 9.11382 9.49467 9.59746 8.91122C10.0811 8.32778 10.7371 8 11.4211 8C11.8189 8 12.1947 8.10667 12.5263 8.30222V3.08444L5.15789 4.97778V12.8889C5.15789 13.714 4.88618 14.5053 4.40254 15.0888C3.91889 15.6722 3.26293 16 2.57895 16C1.89497 16 1.239 15.6722 0.755356 15.0888C0.27171 14.5053 0 13.714 0 12.8889C0 12.0638 0.27171 11.2724 0.755356 10.689C1.239 10.1056 1.89497 9.77778 2.57895 9.77778C2.97684 9.77778 3.35263 9.88444 3.68421 10.08V2.66667L14 0Z" fill="#000000"/>
</svg>

