<svg width="14" height="15" viewBox="0 0 14 15" fill="none" xmlns="http://www.w3.org/2000/svg">
<g clip-path="url(#clip0_97_117)">
<path d="M14 0V10.4167C14 11.1902 13.7283 11.9321 13.2446 12.4791C12.761 13.026 12.105 13.3333 11.4211 13.3333C10.7371 13.3333 10.0811 13.026 9.59746 12.4791C9.11382 11.9321 8.84211 11.1902 8.84211 10.4167C8.84211 9.64313 9.11382 8.90125 9.59746 8.35427C10.0811 7.80729 10.7371 7.5 11.4211 7.5C11.8189 7.5 12.1947 7.6 12.5263 7.78333V2.89166L5.15789 4.66667V12.0833C5.15789 12.8569 4.88618 13.5987 4.40254 14.1458C3.91889 14.6927 3.26293 15 2.57895 15C1.89497 15 1.239 14.6927 0.755356 14.1458C0.27171 13.5987 0 12.8569 0 12.0833C0 11.3098 0.27171 10.5679 0.755356 10.0209C1.239 9.474 1.89497 9.16667 2.57895 9.16667C2.97684 9.16667 3.35263 9.26666 3.68421 9.45V2.5L14 0Z" fill="black"/>
</g>
<defs>
<clipPath id="clip0_97_117">
<rect width="14" height="15" fill="white"/>
</clipPath>
</defs>
</svg>
